<svg width="24" height="24" viewBox="0 0 24 24" fill="none" xmlns="http://www.w3.org/2000/svg">
<g id="moon">
<path id="Vector" d="M11.9793 22.241L11.9793 22.2409L11.9722 22.2406C6.62035 22.0017 2.15035 17.686 1.7787 12.4447L1.77866 12.4442C1.45429 7.94125 4.05835 3.72964 8.26286 1.9614C8.81547 1.73167 9.19101 1.72373 9.43064 1.77165C9.67007 1.81954 9.81772 1.93194 9.90025 2.01741L9.90019 2.01746L9.90639 2.02367C9.99116 2.10843 10.0995 2.25509 10.1442 2.48454C10.1887 2.71296 10.1792 3.06939 9.95178 3.58991L9.95128 3.59107C9.46357 4.71491 9.2195 5.91384 9.22996 7.1434C9.25175 11.8463 13.1486 15.8185 17.8985 16.0097C18.5886 16.0414 19.2652 15.9881 19.9173 15.8724L19.9194 15.872C20.5024 15.7661 20.8651 15.8384 21.0844 15.9351C21.3035 16.0317 21.4219 16.1714 21.4845 16.2729C21.5493 16.3777 21.6232 16.5483 21.6141 16.7885C21.6049 17.0286 21.5109 17.3863 21.1582 17.8625L21.1563 17.865C19.1319 20.6343 15.9128 22.2501 12.4599 22.2501C12.2875 22.2501 12.1322 22.25 11.9793 22.241ZM2.27113 12.4044L2.27122 12.4057C2.62969 17.4243 6.89946 21.5182 11.987 21.7396C15.4443 21.9073 18.7243 20.3307 20.7432 17.5757L20.7433 17.5757L20.7468 17.5707C20.9192 17.3294 21.0111 17.1411 21.0581 17.0157L21.2837 16.4141L20.6452 16.3432C20.514 16.3286 20.3031 16.3182 19.9974 16.3787C19.3054 16.5016 18.5833 16.549 17.8699 16.5205L17.8698 16.5205C12.8528 16.321 8.74916 12.1062 8.71995 7.15865C8.72014 5.84669 8.97644 4.58694 9.49646 3.40409C9.62388 3.1228 9.65268 2.91939 9.66609 2.81213L9.73634 2.25011H9.16995C9.00012 2.25011 8.77385 2.2891 8.46577 2.41936C4.46087 4.1015 1.97631 8.11911 2.27113 12.4044Z" stroke="#090D1F"/>
</g>
</svg>
